<svg width="800" height="600" xmlns="http://www.w3.org/2000/svg">

 <g>
  <title>Layer 1</title>
  <text xml:space="preserve" text-anchor="start" font-family="Noto Sans JP" font-size="24" id="svg_2" y="147" x="340" stroke-width="0" stroke="#000" fill="#000000"/>
  <rect stroke="#000" id="svg_8" height="616.44441" width="814.64679" y="-9.99997" x="-6" stroke-width="0" fill="#242447"/>
  <path stroke="#000" id="svg_10" d="m400.00003,115.15957c-115.1423,0 -208.50006,66.15948 -208.50006,147.77701c0,46.68369 30.64699,88.27842 78.3625,115.35013c-6.78925,24.00107 -20.33831,50.58411 -46.52512,74.09574c0,0 61.12564,-4.31465 104.29963,-51.00468c2.48552,0.65012 5.05827,1.13945 7.5673,1.73975c-2.35797,-7.50331 -3.74615,-15.30344 -3.74615,-23.41926c0,-55.06575 57.49019,-98.18359 130.91598,-98.18359c52.73892,0 97.11549,22.32955 118.00523,55.27627c17.78327,-21.74791 28.12067,-46.93763 28.12067,-73.87312c0,-81.59878 -93.35775,-147.75826 -208.49996,-147.75826l-0.00001,0zm178.05046,264.55129c0,-45.27245 -51.78084,-82.00139 -115.69384,-82.00139c-63.87814,0 -115.68817,36.72895 -115.68817,82.00139c0,45.29674 51.81003,82.00738 115.68817,82.00738c14.14721,0 27.62111,-1.88826 40.14827,-5.1814c23.9506,25.92014 57.86708,28.30358 57.86708,28.30358c-14.52454,-13.05013 -22.02806,-27.79645 -25.8033,-41.12484c26.4598,-15.00592 43.48179,-38.08489 43.48179,-64.00472z" stroke-width="0" fill="#ffffff"/>
 </g>
</svg>